<?xml version="1.0" encoding="utf-8"?><svg viewBox="0 0 310 310" xmlns="http://www.w3.org/2000/svg" xmlns:xlink="http://www.w3.org/1999/xlink"><style>:root>svg{display:none}:root>svg:target{display:block}</style><svg fill="none" viewBox="0 0 22 22" id="icon-Calling" xmlns="http://www.w3.org/2000/svg"><path d="M13.353 1.5a7.97 7.97 0 0 1 7.04 7.032M13.353 5.043a4.426 4.426 0 0 1 3.5 3.5" stroke="#31352B" stroke-width="1.5" stroke-linecap="round" stroke-linejoin="round"/><path clip-rule="evenodd" d="M10.031 11.472c3.99 3.988 4.894-.625 7.434 1.913 2.449 2.448 3.857 2.938.754 6.04-.389.312-2.858 4.07-11.535-4.605-8.677-8.676-4.922-11.148-4.61-11.536 3.11-3.11 3.593-1.695 6.041.753 2.54 2.54-2.072 3.447 1.916 7.435Z" stroke="#31352B" stroke-width="1.5" stroke-linecap="round" stroke-linejoin="round"/></svg><svg fill="none" viewBox="0 0 17 16" id="icon-Frame" xmlns="http://www.w3.org/2000/svg"><path d="M10.318 14.3a.694.694 0 0 1-.616-.36l-2.041-3.858a.622.622 0 0 1 .05-.66L11.005 5.2 6.538 8.314a.725.725 0 0 1-.7.046L1.757 6.432a.646.646 0 0 1-.379-.618.653.653 0 0 1 .449-.574L14.895.69a.719.719 0 0 1 .724.15c.19.18.252.447.16.685l-4.816 12.35a.684.684 0 0 1-.607.424l-.038.001Z" fill="#fff"/></svg><svg fill="none" viewBox="0 0 18 20" id="icon-Location" xmlns="http://www.w3.org/2000/svg"><path clip-rule="evenodd" d="M11.5 8.5a2.5 2.5 0 1 0-5 0 2.5 2.5 0 0 0 5 0Z" stroke="#31352B" stroke-width="1.5" stroke-linecap="round" stroke-linejoin="round"/><path clip-rule="evenodd" d="M9 19C7.8 19 1.5 13.898 1.5 8.563 1.5 4.387 4.857 1 9 1c4.142 0 7.5 3.387 7.5 7.563C16.5 13.898 10.198 19 9 19Z" stroke="#31352B" stroke-width="1.5" stroke-linecap="round" stroke-linejoin="round"/></svg><svg fill="none" viewBox="0 0 22 20" id="icon-Message" xmlns="http://www.w3.org/2000/svg"><path d="m16.903 6.851-4.444 3.613c-.84.666-2.02.666-2.86 0L5.12 6.851" stroke="#31352B" stroke-width="1.5" stroke-linecap="round" stroke-linejoin="round"/><path clip-rule="evenodd" d="M15.909 19C18.95 19.008 21 16.51 21 13.438V6.57C21 3.499 18.95 1 15.909 1H6.09C3.05 1 1 3.499 1 6.57v6.868C1 16.51 3.05 19.008 6.091 19h9.818Z" stroke="#31352B" stroke-width="1.5" stroke-linecap="round" stroke-linejoin="round"/></svg><svg fill="none" viewBox="0 0 24 24" id="icon-arrow" xmlns="http://www.w3.org/2000/svg"><path d="M13.121 6.293a1 1 0 0 0 0 1.414L16.413 11 6 11.007a1 1 0 0 0 0 2L16.414 13l-3.293 3.293a1 1 0 1 0 1.414 1.414l3.586-3.585a3 3 0 0 0 0-4.243l-3.586-3.586a1 1 0 0 0-1.414 0Z" fill="#fff"/></svg><svg fill="none" viewBox="0 0 34 34" id="icon-delivery" xmlns="http://www.w3.org/2000/svg"><path d="m6.518 24.469.407.97c.288-.117.587-.205.893-.26l-.19-1.034c-.38.069-.753.177-1.11.324ZM3.727 27.075l.956.458a4.322 4.322 0 0 1 1.46-1.676l-.6-.867a5.378 5.378 0 0 0-1.816 2.085Z" fill="#0AF"/><path d="M32.938 26.78c0-.905-.337-1.777-.948-2.45l-.791.7c.314.346.529.769.623 1.225h-3.666a.536.536 0 0 0-.442.233l-1.967 2.917h-1.31V27.83a3.659 3.659 0 0 1 1.09-2.598 3.745 3.745 0 0 1 2.63-1.078h1.062c.522 0 1.033.152 1.468.438l.588-.875a3.723 3.723 0 0 0-1.525-.575v-1.613a.522.522 0 0 0-.156-.371.534.534 0 0 0-.375-.154 2.14 2.14 0 0 1-1.502-.616 2.09 2.09 0 0 1-.623-1.485v-2.1h1.593c.141 0 .276-.055.376-.154a.522.522 0 0 0 .156-.37v-3.677a.522.522 0 0 0-.156-.37.535.535 0 0 0-.375-.154h-.938c-.221 0-.442.03-.656.089v-.615a.521.521 0 0 0-.117-.328L25.24 9.077a1.82 1.82 0 0 0-.43-2.366 1.873 1.873 0 0 0-2.43.078 1.822 1.822 0 0 0-.274 2.388 1.86 1.86 0 0 0 1.06.74c.432.112.89.067 1.291-.127l1.575 1.947v.662l-2.335-.77a1.448 1.448 0 0 0-.476-.077h-4.382l-2.522-2.908A1.58 1.58 0 0 0 17 7.352v-.2l.769-.38a.53.53 0 0 0 .276-.336.518.518 0 0 0-.072-.426l-.872-1.293a.532.532 0 0 0 .309-.182.52.52 0 0 0 .121-.334c0-.835-.337-1.636-.934-2.226a3.21 3.21 0 0 0-2.253-.924c-1 0-1.927.284-2.616 1.036a3.123 3.123 0 0 0-.808 2.427l.113 1.124c.048.484.282.932.655 1.25v9.915c0 .37.098.731.285 1.05h-.817c-.18 0-.36.03-.531.09v-6.916c0-.417-.168-.818-.467-1.113a1.605 1.605 0 0 0-1.127-.462H2.656c-.422 0-.827.167-1.126.462a1.568 1.568 0 0 0-.468 1.113v2.626h1.063v-1.05h7.438v5.25H2.125v-3.15H1.062v4.287c0 .246.088.485.247.673.16.19.381.317.626.36l4.971.894v1.232c-.45.103-.89.247-1.314.43H2.656a.534.534 0 0 0-.375.154.522.522 0 0 0-.156.371v2.492a7.393 7.393 0 0 0-1.063 3.81c0 .139.056.272.156.37.1.099.235.154.376.154h2.435c.317.776.862 1.44 1.564 1.908a4.286 4.286 0 0 0 4.752 0 4.211 4.211 0 0 0 1.564-1.908h8.932a2.687 2.687 0 0 0 1.966-.859l.568-.618v1.477c0 .14.056.273.156.372.1.098.234.153.375.153h1.101c.468.801 1.19 1.427 2.054 1.78a4.297 4.297 0 0 0 2.727.177 4.253 4.253 0 0 0 2.271-1.5 4.17 4.17 0 0 0 .705-3.745.522.522 0 0 0 .173-.387ZM22.843 8.14a.782.782 0 0 1 .492-.728.805.805 0 0 1 .868.17.786.786 0 0 1 .173.859.803.803 0 0 1-1.3.255.784.784 0 0 1-.233-.557Zm-7.6 18.64c-.52 0-1.02-.205-1.387-.569a1.93 1.93 0 0 1-.576-1.37c0-.516.132-.998.48-1.395.31-.353.737-.583 1.205-.65a2.377 2.377 0 0 0 1.454-.783c.374-.426.58-.97.58-1.534a.518.518 0 0 0-.156-.372 1.56 1.56 0 0 0 .065-1.203h1.443l-2.332 5.99a1.208 1.208 0 0 0-.082.453v1.433h-.694ZM17 25.73h2.656a.535.535 0 0 1 .508.372.52.52 0 0 1-.213.59 1.074 1.074 0 0 1-.424.088H17v-1.05Zm4.123-.092a1.582 1.582 0 0 0-.484-.623 1.608 1.608 0 0 0-.727-.315l2.2-5.235a3.03 3.03 0 0 0-.284-2.875 3.085 3.085 0 0 0-1.116-1 3.126 3.126 0 0 0-1.46-.362H17v-.833l.156.154a.533.533 0 0 0 .375.154h5.404a1.557 1.557 0 0 0 .201 1.435 1.607 1.607 0 0 0 1.301.666h.002a2.592 2.592 0 0 0-.533 1.575v4.073c0 .278-.112.545-.311.742l-2.472 2.444Zm3.314-9.885a.535.535 0 0 1-.49-.324.52.52 0 0 1 .115-.572.532.532 0 0 1 .579-.114.53.53 0 0 1 .328.485c0 .14-.056.273-.156.371a.535.535 0 0 1-.375.154Zm3.72-2.625v2.625h-1.063v-2.462a1.41 1.41 0 0 1 .656-.163h.406Zm-2.126 2.1a1.56 1.56 0 0 0-.673-1.286 1.603 1.603 0 0 0-1.452-.199v-.937l2.125.7v1.722Zm-7.437-2.626h4.25v1.05H17.75l-3.032-2.996-.75.743 1.969 1.946v1.883H12.75V8.927h2.412l3.028 3.492a.53.53 0 0 0 .404.183Zm-6.078-9.81c.485-.53 1.13-.691 1.828-.691.47 0 .928.155 1.3.44.373.286.64.685.757 1.135h-2.057a.535.535 0 0 0-.376.154.522.522 0 0 0-.155.371v1.247a.848.848 0 0 1-.24.586.868.868 0 0 1-1.482-.5l-.114-1.124a2.054 2.054 0 0 1 .539-1.618Zm.433 4.56c.51 0 1-.202 1.361-.558.361-.357.564-.841.565-1.346v-.722h1.063a.52.52 0 0 0 .089.292l.728 1.08-.524.26a.53.53 0 0 0-.294.469v.525c0 .139-.056.272-.155.37a.535.535 0 0 1-.376.155H12.75V7.34c.066.007.133.01.2.01Zm-.199 9.451v-.525h6.501c.335 0 .665.082.96.238.296.156.547.382.733.657a1.997 1.997 0 0 1 .187 1.889l-2.36 5.617h-1.529l2.379-6.112a.52.52 0 0 0-.249-.653.536.536 0 0 0-.247-.06h-5.313a1.07 1.07 0 0 1-.75-.309 1.045 1.045 0 0 1-.312-.742Zm-1.594 2.1h4.25c.141 0 .276.056.376.154a.522.522 0 0 1-.376.897h-4.25a.534.534 0 0 1-.375-.154.522.522 0 0 1 .375-.896Zm-9.031-7.35v-.526c0-.139.056-.272.156-.37a.535.535 0 0 1 .375-.155h6.375c.141 0 .276.056.376.154.1.099.155.232.155.371v.525H2.125Zm0 7.35h7.438v1.05H7.485l-5.36-.963v-.086Zm1.72 4.726c-.231.185-.45.384-.658.594v-.594h.657Zm4.124 7.877a3.24 3.24 0 0 1-1.592-.426 3.194 3.194 0 0 1-1.168-1.15h1.356a2.136 2.136 0 0 0 2.808 0h1.356a3.193 3.193 0 0 1-1.169 1.15 3.24 3.24 0 0 1-1.591.426Zm14.051-3.141a1.595 1.595 0 0 1-1.18.515H2.148a6.358 6.358 0 0 1 1.592-3.701 6.487 6.487 0 0 1 3.513-2.03 2.01 2.01 0 0 1 .418-.045h3.486v-1.05H7.97v-1.05h7.856a1.314 1.314 0 0 1-1.01.753c-.72.102-1.38.458-1.857 1-.514.586-.74 1.318-.74 2.083 0 .712.258 1.4.726 1.94H8.5v1.05h11.027a2.176 2.176 0 0 0 1.503-.615l3.316-3.278c.398-.395.621-.928.623-1.485v-4.074c0-.325.102-.643.293-.909.19-.266.459-.467.77-.576v2.01c0 .745.267 1.465.753 2.033.486.569 1.16.95 1.902 1.074v1.094c-.33 0-.667-.02-.995.023a4.82 4.82 0 0 0-2.683 1.15 4.727 4.727 0 0 0-1.507 2.476l-1.482 1.612Zm6.42-1.06h.027l.642.634a.588.588 0 0 1 .074.743.594.594 0 0 1-.612.25.597.597 0 0 1-.305-.16l-.489-.484.663-.983Zm.247 4.2c-.46 0-.914-.1-1.332-.291a3.2 3.2 0 0 1-1.09-.813.528.528 0 0 0 .208-.18l.46-.682c.257.37.626.65 1.055.799.428.148.893.156 1.327.024a2.123 2.123 0 0 0 1.083-.76 2.083 2.083 0 0 0 .129-2.297h1.166a3.118 3.118 0 0 1-.403 2.869 3.178 3.178 0 0 1-1.137.978 3.218 3.218 0 0 1-1.465.354Z" fill="#0AF"/><path d="M4.25 13.652H3.187v3.15H4.25v-3.15Z" fill="#0AF"/></svg><svg viewBox="0 0 155.139 155.139" style="enable-background:new 0 0 155.139 155.139" xml:space="preserve" id="icon-facebook" xmlns="http://www.w3.org/2000/svg"><path style="fill:#010002" d="M89.584 155.139V84.378h23.742l3.562-27.585H89.584V39.184c0-7.984 2.208-13.425 13.67-13.425l14.595-.006V1.08C115.325.752 106.661 0 96.577 0 75.52 0 61.104 12.853 61.104 36.452v20.341H37.29v27.585h23.814v70.761h28.48z"/></svg><svg fill="none" viewBox="0 0 24 24" id="icon-instagram" xmlns="http://www.w3.org/2000/svg"><g fill="#000"><path d="M12 9.75a2.25 2.25 0 1 0 0 4.5 2.25 2.25 0 0 0 0-4.5z"/><path clip-rule="evenodd" d="M11.955 2.25c-1.837 0-3.276 0-4.419.124-1.165.126-2.11.388-2.916.974A5.75 5.75 0 0 0 3.348 4.62c-.586.807-.848 1.75-.974 2.916-.124 1.143-.124 2.582-.124 4.419v.09c0 1.837 0 3.276.124 4.418.126 1.166.388 2.11.974 2.917a5.75 5.75 0 0 0 1.272 1.272c.807.586 1.75.848 2.916.974 1.143.124 2.582.124 4.419.124h.09c1.837 0 3.276 0 4.419-.124 1.165-.126 2.11-.388 2.916-.974a5.749 5.749 0 0 0 1.272-1.272c.586-.807.848-1.75.974-2.916.124-1.143.124-2.582.124-4.419v-.09c0-1.837 0-3.276-.124-4.419-.126-1.165-.388-2.11-.974-2.916a5.75 5.75 0 0 0-1.272-1.272c-.807-.586-1.75-.848-2.916-.974-1.143-.124-2.582-.124-4.419-.124zM8.25 12a3.75 3.75 0 1 1 7.5 0 3.75 3.75 0 0 1-7.5 0zM17 8a1 1 0 1 1 0-2 1 1 0 0 1 0 2z" fill-rule="evenodd"/></g></svg><svg fill="none" viewBox="0 0 21 21" id="icon-search" xmlns="http://www.w3.org/2000/svg"><ellipse cx="9.767" cy="9.63" rx="8.989" ry="8.884" stroke="#363853" stroke-width="1.5" stroke-linecap="round" stroke-linejoin="round"/><path d="m16.018 16.27 3.524 3.475" stroke="#363853" stroke-width="1.5" stroke-linecap="round" stroke-linejoin="round"/></svg><svg fill="none" viewBox="0 0 34 34" id="icon-shop" xmlns="http://www.w3.org/2000/svg"><path d="M32.406 28.156h-3.718V17.484a2.31 2.31 0 0 0 1.69-3.092l-1.69-4.397V1.594a.531.531 0 0 0-.532-.532H5.844a.531.531 0 0 0-.532.532v8.4l-1.69 4.398a2.31 2.31 0 0 0 1.69 3.092v10.672H1.595a.531.531 0 0 0-.532.532v3.718a.532.532 0 0 0 .532.532h30.812a.532.532 0 0 0 .532-.532v-3.718a.53.53 0 0 0-.532-.532Zm-5.843 0v-11.33c.29.3.658.517 1.062.625v10.705h-1.063Zm-4.25.532v3.187h-2.125v-3.719h1.062a.53.53 0 0 0 .531-.531v-1.594a.531.531 0 0 0-.531-.531h-3.188a.531.531 0 0 0-.53.531v1.594a.531.531 0 0 0 .53.531h1.063v3.719H17v-3.188a.53.53 0 0 0-.531-.53h-1.063v-1.595a.529.529 0 0 0-.531-.53h-1.063v-8.55a2.309 2.309 0 0 0 1.313-.79 2.29 2.29 0 0 0 1.781.84h.188a2.288 2.288 0 0 0 1.78-.84c.077.092.161.178.251.258v1.644a2.659 2.659 0 0 0-2.656 2.656.533.533 0 0 0 .531.531h5.313a.529.529 0 0 0 .53-.531 2.659 2.659 0 0 0-2.655-2.656v-1.111c.154.032.311.048.469.048h.166a2.305 2.305 0 0 0 1.802-.864 2.302 2.302 0 0 0 1.805.864h.102c.334 0 .664-.07.968-.21v8.71h-1.063a.53.53 0 0 0-.53.532v1.593h-1.063a.532.532 0 0 0-.532.532Zm-3.72-1.594v-.532h2.126v.532h-2.125ZM8.264 14.893l1.173-4.268h2.156l-.79 4.8a1.243 1.243 0 0 1-1.232 1.044h-.102a1.248 1.248 0 0 1-1.204-1.576ZM8.5 17.32c.304.14.634.21.968.21h.102a2.3 2.3 0 0 0 1.805-.864 2.306 2.306 0 0 0 1.375.825v2.695H8.5v-2.866Zm4.677-.852a1.248 1.248 0 0 1-1.231-1.451l.724-4.393h2.175l-.256 4.664a1.248 1.248 0 0 1-1.246 1.18h-.166Zm4.822-.39a1.237 1.237 0 0 1-.905.39h-.188a1.25 1.25 0 0 1-1.245-1.313l.248-4.531h2.182l.248 4.528v.003a1.233 1.233 0 0 1-.34.923Zm1.412-.79-.256-4.664h2.175l.724 4.393a1.248 1.248 0 0 1-1.231 1.45h-.166a1.248 1.248 0 0 1-1.246-1.179Zm.776 4.367a1.597 1.597 0 0 1 1.503 1.063h-4.068a1.597 1.597 0 0 1 1.503-1.063h1.063Zm5.338-3.679a1.239 1.239 0 0 1-.992.492h-.104a1.244 1.244 0 0 1-1.23-1.045l-.792-4.799h2.157l1.172 4.265v.003a1.24 1.24 0 0 1-.211 1.084Zm-.556 11.117h.531v1.062h-.531v-1.062Zm4.418-12.321a1.248 1.248 0 1 1-2.368.779l-1.354-4.927h2.127l1.595 4.148ZM6.375 2.125h21.25v7.438H6.375V2.125ZM4.749 15.928a1.23 1.23 0 0 1-.136-1.155l1.595-4.148h2.127L6.98 15.552a1.252 1.252 0 0 1-1.785.775 1.23 1.23 0 0 1-.447-.4Zm1.626 1.523a2.305 2.305 0 0 0 1.063-.626v11.331H6.375V17.452Zm4.25 14.424h-8.5v-2.656h8.5v2.656Zm.531-3.719H8.5V21.25h4.25v10.625h-1.063v-3.188a.53.53 0 0 0-.53-.53Zm2.656-1.062h.532v1.593a.529.529 0 0 0 .531.532h1.063v2.656h-2.126v-4.781Zm18.063 4.781h-8.5v-2.656h8.5v2.656Z" fill="#F22"/><path d="M20.719 6.375h-.577a3.195 3.195 0 0 0-2.61-2.611v-.576a.531.531 0 1 0-1.063 0v.576a3.195 3.195 0 0 0-2.611 2.611h-.577a.531.531 0 0 0-.531.531 2.127 2.127 0 0 0 2.125 2.125h4.25a2.127 2.127 0 0 0 2.125-2.125.531.531 0 0 0-.531-.531ZM17 4.781a2.129 2.129 0 0 1 2.058 1.594h-4.116A2.129 2.129 0 0 1 17 4.781Zm2.125 3.188h-4.25a1.063 1.063 0 0 1-.92-.532h6.09a1.064 1.064 0 0 1-.92.532ZM13.045 5.223a.532.532 0 0 0 .236-.442V3.188H12.22v1.29a2.339 2.339 0 0 1-.531.194V3.188h-1.063v1.484a2.337 2.337 0 0 1-.531-.194v-1.29H9.03V4.78a.531.531 0 0 0 .237.442c.409.273.872.454 1.357.531v3.277h1.063V5.754a3.406 3.406 0 0 0 1.357-.53ZM22.844 2.656a2.125 2.125 0 0 0-.532 4.183v2.192h1.063V6.84a2.125 2.125 0 0 0-.531-4.183Zm0 3.188a1.063 1.063 0 1 1 0-2.125 1.063 1.063 0 0 1 0 2.125Z" fill="#F22"/></svg><svg fill="none" viewBox="0 0 21 20" id="icon-shopping_bag" xmlns="http://www.w3.org/2000/svg"><path d="m1 1.176 2.08.356.963 11.34c.077.926.86 1.636 1.8 1.633h10.909a1.794 1.794 0 0 0 1.785-1.528l.949-6.482a1.328 1.328 0 0 0-1.135-1.501c-.064-.009-14.937-.014-14.937-.014M12.375 8.633h2.773" stroke="#363853" stroke-width="1.5" stroke-linecap="round" stroke-linejoin="round"/><path clip-rule="evenodd" d="M5.404 17.932a.54.54 0 0 1 .544.538.541.541 0 0 1-.544.539.541.541 0 0 1-.544-.54.54.54 0 0 1 .544-.537ZM16.685 17.932c.3 0 .545.24.545.538a.542.542 0 0 1-.545.539.541.541 0 0 1-.544-.54.54.54 0 0 1 .544-.537Z" stroke="#363853" stroke-width="1.5" stroke-linecap="round" stroke-linejoin="round"/></svg><svg fill="none" viewBox="0 0 34 34" id="icon-stopwatch" xmlns="http://www.w3.org/2000/svg"><g clip-path="url(#la)" fill="#FF6838"><path d="m31.754 12.881.996-.996c.288-.288.447-.67.447-1.078 0-.407-.159-.79-.447-1.077l-1.14-1.141a1.514 1.514 0 0 0-1.078-.447c-.407 0-.79.159-1.078.447l-.996.996a12.7 12.7 0 0 0-4.412-1.933V6.179h.606a1.49 1.49 0 0 0 1.488-1.488v-2.07a1.49 1.49 0 0 0-1.488-1.488H17.8a1.49 1.49 0 0 0-1.488 1.488v2.07c0 .82.668 1.488 1.488 1.488h.606v1.477a12.703 12.703 0 0 0-4.392 1.929l-.996-.996a1.514 1.514 0 0 0-1.078-.447c-.407 0-.79.159-1.078.447l-1.14 1.14a1.526 1.526 0 0 0 0 2.156l.176.177H5.19a.664.664 0 0 0 0 1.328h5.193a12.713 12.713 0 0 0-1.215 2.552H.664a.664.664 0 0 0 0 1.328H8.79a12.747 12.747 0 0 0-.314 2.553H4.25a.664.664 0 0 0 0 1.328h4.265c.072.879.233 1.733.474 2.552H3.32a.664.664 0 0 0 0 1.329h6.142c1.932 4.598 6.482 7.835 11.774 7.835C28.274 32.867 34 27.142 34 20.104c0-2.678-.83-5.167-2.246-7.222Zm-1.36-3.353a.192.192 0 0 1 .138-.058c.037 0 .091.01.139.058l1.14 1.14a.193.193 0 0 1 .058.14c0 .037-.01.09-.058.138l-.873.873c-.435-.509-.91-.983-1.418-1.418l.873-.873ZM17.64 4.69v-2.07a.16.16 0 0 1 .16-.16h6.852a.16.16 0 0 1 .16.16v2.07a.16.16 0 0 1-.16.16H17.8a.16.16 0 0 1-.16-.16Zm2.095 1.488h2.983v1.247a12.835 12.835 0 0 0-2.983.002V6.179Zm-9.075 4.49 1.141-1.141a.192.192 0 0 1 .139-.058c.037 0 .091.01.139.058l.873.873c-.51.435-.983.91-1.418 1.418l-.874-.873a.196.196 0 0 1 0-.277Zm10.576 20.87C14.93 31.54 9.8 26.41 9.8 20.103S14.93 8.667 21.236 8.667s11.436 5.13 11.436 11.436-5.13 11.436-11.436 11.436Z"/><path d="m25.619 14.781-3.14 3.14a2.498 2.498 0 0 0-1.243-.331 2.517 2.517 0 0 0-2.514 2.513 2.517 2.517 0 0 0 2.514 2.514 2.516 2.516 0 0 0 2.514-2.514c0-.452-.121-.877-.331-1.244l3.139-3.139a.664.664 0 0 0-.94-.939Zm-4.383 6.508a1.187 1.187 0 0 1-1.186-1.186 1.187 1.187 0 0 1 2.371 0c0 .654-.531 1.186-1.185 1.186ZM21.236 11.494a.669.669 0 0 0 .47-.195.67.67 0 0 0 .194-.47.669.669 0 0 0-.664-.664.669.669 0 0 0-.664.664.668.668 0 0 0 .664.665ZM21.236 28.713a.669.669 0 0 0-.47.194.668.668 0 0 0 .47 1.134.666.666 0 0 0 .664-.664.669.669 0 0 0-.194-.47.669.669 0 0 0-.47-.194ZM14.678 12.882a.67.67 0 0 0-.47.194.67.67 0 0 0-.194.47.67.67 0 0 0 .195.47.669.669 0 0 0 .939 0 .67.67 0 0 0 .194-.47.67.67 0 0 0-.194-.47.669.669 0 0 0-.47-.194ZM27.794 25.997a.67.67 0 0 0-.47.194.668.668 0 0 0 0 .94.67.67 0 0 0 .47.194.669.669 0 0 0 .47-.195.67.67 0 0 0 .194-.47.669.669 0 0 0-.664-.663ZM14.678 25.997a.67.67 0 0 0-.47.194.669.669 0 0 0-.194.47.67.67 0 0 0 .195.47.67.67 0 0 0 .47.194.669.669 0 0 0 .469-.195.67.67 0 0 0 .194-.47.67.67 0 0 0-.194-.469.67.67 0 0 0-.47-.194ZM11.963 19.44a.668.668 0 0 0-.665.663.667.667 0 0 0 .665.664.666.666 0 0 0 .664-.664.669.669 0 0 0-.195-.47.669.669 0 0 0-.47-.194ZM30.98 19.634a.667.667 0 0 0-1.133.47.667.667 0 0 0 .663.663.669.669 0 0 0 .664-.664.67.67 0 0 0-.195-.47ZM.664 23.704a.669.669 0 0 0-.47.194.67.67 0 0 0-.194.47.67.67 0 0 0 .195.47.67.67 0 0 0 .47.194.669.669 0 0 0 .468-.195.67.67 0 0 0 .195-.47.67.67 0 0 0-.195-.47.668.668 0 0 0-.469-.193Z"/><path d="M30.314 18.087a.664.664 0 0 0 .447-.826 9.964 9.964 0 0 0-6.704-6.689.664.664 0 1 0-.376 1.274 8.576 8.576 0 0 1 5.807 5.794.664.664 0 0 0 .826.447Z"/></g><defs><clipPath id="la"><path fill="#fff" d="M0 0h34v34H0z"/></clipPath></defs></svg><svg fill="none" viewBox="0 0 22 22" id="icon-timer" xmlns="http://www.w3.org/2000/svg"><g opacity=".9" fill="#31352B"><path d="M11.575 2.54v-.959a.611.611 0 0 0-1.222 0v.965c-4.803.333-8.609 4.344-8.609 9.23 0 5.102 4.153 9.254 9.256 9.254 5.103 0 9.256-4.152 9.256-9.255 0-4.91-3.845-8.937-8.681-9.235ZM11 19.808c-4.43 0-8.033-3.604-8.033-8.033 0-4.43 3.603-8.033 8.033-8.033s8.033 3.604 8.033 8.033c0 4.429-3.603 8.033-8.033 8.033Z"/><path d="M7.863 17.322a6.39 6.39 0 0 1-3.234-5.547.305.305 0 1 0-.611 0 7.004 7.004 0 0 0 3.544 6.079.306.306 0 0 0 .301-.532ZM9.53 18.16a6.839 6.839 0 0 1-.353-.102.305.305 0 0 0-.186.582c.127.04.255.078.385.11a.305.305 0 0 0 .153-.59ZM18.885 5.728a.611.611 0 0 0 .863-.865L18.162 3.28a.61.61 0 1 0-.863.865l1.586 1.583ZM11.575 11.661V6.776a.611.611 0 0 0-1.223 0v5.15c0 .168.088.328.21.443l1.789 1.672a.61.61 0 0 0 .657.117.61.61 0 0 0 .163-1.006l-1.596-1.49Z"/></g></svg><svg viewBox="0 0 310 310" style="enable-background:new 0 0 310 310" xml:space="preserve" id="icon-twitter" xmlns="http://www.w3.org/2000/svg"><path d="M302.973 57.388a117.512 117.512 0 0 1-14.993 5.463 66.276 66.276 0 0 0 13.494-23.73 5 5 0 0 0-7.313-5.824 117.994 117.994 0 0 1-34.878 13.783c-12.381-12.098-29.197-18.983-46.581-18.983-36.695 0-66.549 29.853-66.549 66.547 0 2.89.183 5.764.545 8.598C101.163 99.244 58.83 76.863 29.76 41.204a5.001 5.001 0 0 0-8.196.642c-5.896 10.117-9.013 21.688-9.013 33.461 0 16.035 5.725 31.249 15.838 43.137a56.37 56.37 0 0 1-8.907-3.977 5 5 0 0 0-7.427 4.257c-.007.295-.007.59-.007.889 0 23.935 12.882 45.484 32.577 57.229a57.372 57.372 0 0 1-5.063-.735 4.998 4.998 0 0 0-5.699 6.437c7.29 22.76 26.059 39.501 48.749 44.605-18.819 11.787-40.34 17.961-62.932 17.961a120.4 120.4 0 0 1-14.095-.826 5 5 0 0 0-3.286 9.174c29.023 18.609 62.582 28.445 97.047 28.445 67.754 0 110.139-31.95 133.764-58.753 29.46-33.421 46.356-77.658 46.356-121.367 0-1.826-.028-3.67-.084-5.508 11.623-8.757 21.63-19.355 29.773-31.536a5 5 0 0 0-6.182-7.351z"/></svg></svg>