<?xml version="1.0" encoding="utf-8"?><svg viewBox="0 0 310 310" xmlns="http://www.w3.org/2000/svg" xmlns:xlink="http://www.w3.org/1999/xlink"><style>:root>svg{display:none}:root>svg:target{display:block}</style><svg fill="none" viewBox="0 0 22 22" id="icon-Calling" xmlns="http://www.w3.org/2000/svg"><path d="M13.353 1.5a7.97 7.97 0 0 1 7.04 7.032M13.353 5.043a4.426 4.426 0 0 1 3.5 3.5" stroke="#31352B" stroke-width="1.5" stroke-linecap="round" stroke-linejoin="round"/><path clip-rule="evenodd" d="M10.031 11.472c3.99 3.988 4.894-.625 7.434 1.913 2.449 2.448 3.857 2.938.754 6.04-.389.312-2.858 4.07-11.535-4.605-8.677-8.676-4.922-11.148-4.61-11.536 3.11-3.11 3.593-1.695 6.041.753 2.54 2.54-2.072 3.447 1.916 7.435Z" stroke="#31352B" stroke-width="1.5" stroke-linecap="round" stroke-linejoin="round"/></svg><svg fill="none" viewBox="0 0 17 16" id="icon-Frame" xmlns="http://www.w3.org/2000/svg"><path d="M10.318 14.3a.694.694 0 0 1-.616-.36l-2.041-3.858a.622.622 0 0 1 .05-.66L11.005 5.2 6.538 8.314a.725.725 0 0 1-.7.046L1.757 6.432a.646.646 0 0 1-.379-.618.653.653 0 0 1 .449-.574L14.895.69a.719.719 0 0 1 .724.15c.19.18.252.447.16.685l-4.816 12.35a.684.684 0 0 1-.607.424l-.038.001Z" fill="#fff"/></svg><svg fill="none" viewBox="0 0 18 20" id="icon-Location" xmlns="http://www.w3.org/2000/svg"><path clip-rule="evenodd" d="M11.5 8.5a2.5 2.5 0 1 0-5 0 2.5 2.5 0 0 0 5 0Z" stroke="#31352B" stroke-width="1.5" stroke-linecap="round" stroke-linejoin="round"/><path clip-rule="evenodd" d="M9 19C7.8 19 1.5 13.898 1.5 8.563 1.5 4.387 4.857 1 9 1c4.142 0 7.5 3.387 7.5 7.563C16.5 13.898 10.198 19 9 19Z" stroke="#31352B" stroke-width="1.5" stroke-linecap="round" stroke-linejoin="round"/></svg><svg fill="none" viewBox="0 0 22 20" id="icon-Message" xmlns="http://www.w3.org/2000/svg"><path d="m16.903 6.851-4.444 3.613c-.84.666-2.02.666-2.86 0L5.12 6.851" stroke="#31352B" stroke-width="1.5" stroke-linecap="round" stroke-linejoin="round"/><path clip-rule="evenodd" d="M15.909 19C18.95 19.008 21 16.51 21 13.438V6.57C21 3.499 18.95 1 15.909 1H6.09C3.05 1 1 3.499 1 6.57v6.868C1 16.51 3.05 19.008 6.091 19h9.818Z" stroke="#31352B" stroke-width="1.5" stroke-linecap="round" stroke-linejoin="round"/></svg><svg viewBox="0 0 155.139 155.139" style="enable-background:new 0 0 155.139 155.139" xml:space="preserve" id="icon-facebook" xmlns="http://www.w3.org/2000/svg"><path style="fill:#010002" d="M89.584 155.139V84.378h23.742l3.562-27.585H89.584V39.184c0-7.984 2.208-13.425 13.67-13.425l14.595-.006V1.08C115.325.752 106.661 0 96.577 0 75.52 0 61.104 12.853 61.104 36.452v20.341H37.29v27.585h23.814v70.761h28.48z"/></svg><svg fill="none" viewBox="0 0 24 24" id="icon-instagram" xmlns="http://www.w3.org/2000/svg"><g fill="#000"><path d="M12 9.75a2.25 2.25 0 1 0 0 4.5 2.25 2.25 0 0 0 0-4.5z"/><path clip-rule="evenodd" d="M11.955 2.25c-1.837 0-3.276 0-4.419.124-1.165.126-2.11.388-2.916.974A5.75 5.75 0 0 0 3.348 4.62c-.586.807-.848 1.75-.974 2.916-.124 1.143-.124 2.582-.124 4.419v.09c0 1.837 0 3.276.124 4.418.126 1.166.388 2.11.974 2.917a5.75 5.75 0 0 0 1.272 1.272c.807.586 1.75.848 2.916.974 1.143.124 2.582.124 4.419.124h.09c1.837 0 3.276 0 4.419-.124 1.165-.126 2.11-.388 2.916-.974a5.749 5.749 0 0 0 1.272-1.272c.586-.807.848-1.75.974-2.916.124-1.143.124-2.582.124-4.419v-.09c0-1.837 0-3.276-.124-4.419-.126-1.165-.388-2.11-.974-2.916a5.75 5.75 0 0 0-1.272-1.272c-.807-.586-1.75-.848-2.916-.974-1.143-.124-2.582-.124-4.419-.124zM8.25 12a3.75 3.75 0 1 1 7.5 0 3.75 3.75 0 0 1-7.5 0zM17 8a1 1 0 1 1 0-2 1 1 0 0 1 0 2z" fill-rule="evenodd"/></g></svg><svg fill="none" viewBox="0 0 21 21" id="icon-search" xmlns="http://www.w3.org/2000/svg"><ellipse cx="9.767" cy="9.63" rx="8.989" ry="8.884" stroke="#363853" stroke-width="1.5" stroke-linecap="round" stroke-linejoin="round"/><path d="m16.018 16.27 3.524 3.475" stroke="#363853" stroke-width="1.5" stroke-linecap="round" stroke-linejoin="round"/></svg><svg fill="none" viewBox="0 0 21 20" id="icon-shopping_bag" xmlns="http://www.w3.org/2000/svg"><path d="m1 1.176 2.08.356.963 11.34c.077.926.86 1.636 1.8 1.633h10.909a1.794 1.794 0 0 0 1.785-1.528l.949-6.482a1.328 1.328 0 0 0-1.135-1.501c-.064-.009-14.937-.014-14.937-.014M12.375 8.633h2.773" stroke="#363853" stroke-width="1.5" stroke-linecap="round" stroke-linejoin="round"/><path clip-rule="evenodd" d="M5.404 17.932a.54.54 0 0 1 .544.538.541.541 0 0 1-.544.539.541.541 0 0 1-.544-.54.54.54 0 0 1 .544-.537ZM16.685 17.932c.3 0 .545.24.545.538a.542.542 0 0 1-.545.539.541.541 0 0 1-.544-.54.54.54 0 0 1 .544-.537Z" stroke="#363853" stroke-width="1.5" stroke-linecap="round" stroke-linejoin="round"/></svg><svg viewBox="0 0 310 310" style="enable-background:new 0 0 310 310" xml:space="preserve" id="icon-twitter" xmlns="http://www.w3.org/2000/svg"><path d="M302.973 57.388a117.512 117.512 0 0 1-14.993 5.463 66.276 66.276 0 0 0 13.494-23.73 5 5 0 0 0-7.313-5.824 117.994 117.994 0 0 1-34.878 13.783c-12.381-12.098-29.197-18.983-46.581-18.983-36.695 0-66.549 29.853-66.549 66.547 0 2.89.183 5.764.545 8.598C101.163 99.244 58.83 76.863 29.76 41.204a5.001 5.001 0 0 0-8.196.642c-5.896 10.117-9.013 21.688-9.013 33.461 0 16.035 5.725 31.249 15.838 43.137a56.37 56.37 0 0 1-8.907-3.977 5 5 0 0 0-7.427 4.257c-.007.295-.007.59-.007.889 0 23.935 12.882 45.484 32.577 57.229a57.372 57.372 0 0 1-5.063-.735 4.998 4.998 0 0 0-5.699 6.437c7.29 22.76 26.059 39.501 48.749 44.605-18.819 11.787-40.34 17.961-62.932 17.961a120.4 120.4 0 0 1-14.095-.826 5 5 0 0 0-3.286 9.174c29.023 18.609 62.582 28.445 97.047 28.445 67.754 0 110.139-31.95 133.764-58.753 29.46-33.421 46.356-77.658 46.356-121.367 0-1.826-.028-3.67-.084-5.508 11.623-8.757 21.63-19.355 29.773-31.536a5 5 0 0 0-6.182-7.351z"/></svg></svg>