<svg fill="none" viewBox="0 0 24 24" xmlns="http://www.w3.org/2000/svg"><g fill="rgb(0,0,0)"><path d="m12 9.75c-1.2426 0-2.25 1.0074-2.25 2.25s1.0074 2.25 2.25 2.25 2.25-1.0074 2.25-2.25-1.0074-2.25-2.25-2.25z"></path><path clip-rule="evenodd" d="m11.9548 2.25c-1.8366-.00001-3.27619-.00001-4.41832.12373-1.16554.12628-2.10992.38859-2.91624.97442-.48815.35466-.91743.78394-1.27209 1.27209-.58583.80632-.84814 1.7507-.97442 2.91624-.12374 1.14213-.12374 2.58172-.12373 4.41832v.0904c-.00001 1.8366-.00001 3.2762.12373 4.4183.12628 1.1656.38859 2.1099.97442 2.9163.35466.4881.78394.9174 1.27209 1.272.80632.5859 1.7507.8482 2.91624.9745 1.14211.1237 2.58172.1237 4.41822.1237h.0906c1.8365 0 3.2761 0 4.4182-.1237 1.1656-.1263 2.1099-.3886 2.9163-.9745.4881-.3546.9174-.7839 1.272-1.272.5859-.8064.8482-1.7507.9745-2.9163.1237-1.1421.1237-2.5817.1237-4.4182v-.0906c0-1.8365 0-3.27611-.1237-4.41822-.1263-1.16554-.3886-2.10992-.9745-2.91624-.3546-.48815-.7839-.91743-1.272-1.27209-.8064-.58583-1.7507-.84814-2.9163-.97442-1.1421-.12374-2.5817-.12374-4.4183-.12373zm-3.7048 9.75c0-2.07107 1.67893-3.75 3.75-3.75 2.0711 0 3.75 1.67893 3.75 3.75 0 2.0711-1.6789 3.75-3.75 3.75-2.07107 0-3.75-1.6789-3.75-3.75zm8.75-4c-.5523 0-1-.44772-1-1s.4477-1 1-1 1 .44772 1 1-.4477 1-1 1z" fill-rule="evenodd"></path></g></svg>